<svg fill="none" viewBox="0 0 14 14" xmlns="http://www.w3.org/2000/svg"><g clip-rule="evenodd" fill-rule="evenodd"><path d="m13 5.89243v-1.1008c0-.55229-.4477-1-1-1h-10c-.55228 0-1 .44771-1 1v1.1008c0 .55229.44772 1 1 1h10c.5523 0 1-.44771 1-1zm-.7244 1.00003v5.10754c0 .5523-.4477 1-1 1h-8.55148c-.55228 0-1-.4477-1-1v-5.10754z" fill="#79ee8d"/><path d="m2.04732 3.16663c-.04773-.13854-.08577-.2807-.11231-.42475-.1048-.5688-.04196-1.27214.46349-1.832913.49775-.552234 1.26231-.783967 2.15875-.783967 1.11362 0 1.93959.71546 2.44273 1.39307.50314-.67761 1.3291-1.39307 2.44272-1.39307.8964 0 1.661.231733 2.1588.783967.5054.560773.5682 1.264113.4634 1.832913-.0265.14405-.0645.28621-.1123.42475h.0474c.8975 0 1.625.72753 1.625 1.625v1.1008c0 .56434-.2877 1.06148-.7244 1.35279v4.75478c0 .8975-.7275 1.625-1.625 1.625h-8.55148c-.89746 0-1.625-.7275-1.625-1.625v-4.75494c-.436559-.29134-.72412-.7884-.72412-1.35263v-1.1008c0-.89747.72754-1.625 1.625-1.625zm2.00664 0c-.01948-.01948-.04047-.04191-.06285-.06774-.16604-.19163-.2933-.4474-.33507-.6741-.04106-.22287.01263-.3112.04236-.34417.03742-.04152.22666-.20562.85885-.20562.3234 0 .70516.22438 1.06109.71832.1405.19496.24852.39335.328.57331zm3.99965 0h1.89238c.01948-.01948.04047-.04191.06281-.06774.1661-.19163.2933-.4474.3351-.6741.0411-.22287-.0126-.3112-.0423-.34417-.0375-.04152-.2267-.20562-.8589-.20562-.3234 0-.70516.22438-1.06109.71832-.14049.19496-.24851.39335-.328.57331zm3.22199 9.20837h-3.1506v-4.85754h3.5256v4.48254c0 .2071-.1679.375-.375.375zm-5.4006 0v-4.85754h-3.52588v4.48254c0 .2071.16789.375.375.375zm-4.25-7.58337c0-.20711.16789-.375.375-.375h10c.2071 0 .375.16789.375.375v1.1008c0 .20711-.1679.375-.375.375h-10c-.20711 0-.375-.16789-.375-.375z" fill="#0c098c"/></g></svg>